/* XPM */
static char * bee[] = {
/* bee pixmap
 * width height ncolors chars_per_pixel */
"44 39 4 2 ",
"   c #FFFFFF 	 s s_#FFFFFF ",
".  c #000 	 s s_#000 ",
"X  c #A8A8A8 	 s s_#A8A8A8 ",
"o  c #545454 	 s s_#545454 ",
/* pixels */
"                                        .         .           . . . .                   ",
"                                    .         . . X . .     . . X X . . .               ",
"                                            . . X X X .   . X X X X X X X . .           ",
"                                  .       . . X X X X X . . X X X X X X X X . .         ",
"                                        . . X X . X X . . X X X X X X X X X X . .       ",
"                                .       . X X . X X X . X X X X X X X X . X X X .     . ",
"                                      . . X X . X X . X X X X X X X . . X X X X .       ",
"                              .       . X X X . X . . X X X X X X . X X X X X X .       ",
"                                      . X X . X X . X X X X X X . X X X X X X X .     . ",
"                            .         . X X . X . . X X X X X X . X X X X X X X .       ",
"    .                               . X X . X X . X X X X X . . X X X X X X X . .       ",
"      . .                   .       . X X . X . X X X X X . X X X X X X X X X .       . ",
"          .                         . X . X X . X X X . . X X X X X X X X X X .         ",
". .         . .             .       . X . X o X X X . X X X X X X X X X X X .           ",
"    . . .       .                   . X X X o X . . X X X X X X X X X X . .       .     ",
"          . . . . .                 . X X o o X X X X X X X X X X . . .                 ",
"              . .   . . .           . X X o X X X X X X X . . . . .           .         ",
"          . .             .           o . . . . . . . . o                 .             ",
"        .                   o . . . . . . o o o . . o . . o           .                 ",
"      .     .                 o . . o o .       . o o . . . . .                         ",
"    .     . X .               .   . . o .       . o o o .     . . .                     ",
"  .       . X .               .   o . o o .     . o o o .     . o . . .                 ",
"  .         .                 .   o . o o o .     . o o .     . o o o . . .             ",
".                   .         .   o . o o o .     . . o .     . o o o .   . .           ",
".                 .           .   o . o o o .     o . o .     . o o o .     . .         ",
"  .             .             .   o . o o o .     o . o .     . o o o .     . . .       ",
"    . . . . . .             .     o . o o o .     o . o .     . o o o .     . . . .     ",
"        . .               .     o . o o o o .     o . o .     . o o o .     . . .       ",
"            . . . . . . .     o . . o o o .       o . o .     . o o o .     . .         ",
"                        . . o . o o o o o .       . . o .     . o o o .   . .           ",
"                        . o o o o o o o o .       . o o .     . o o o . o               ",
"                          . o o o o o o .       . o o o .   . o o . . .                 ",
"                            . o o o o . .   . . o o o o . . . o . o o                   ",
"                            . . . . . . . . . o . . . . . o o                           ",
"                            .       o o o . . . o o o       .                           ",
"                              .               . .           . .                         ",
"                                .               . .             . . .                   ",
"                                  . . .             . .               . .               ",
"                                        . .             . . . . .       . . . .         "
} ;
