/* XPM */
static char * bomb[] = {
/* bomb pixmap
 * width height ncolors chars_per_pixel */
"32 32 3 1 ",
"  c #FFFFFFFFFFFF 	 s s_#FFFFFFFFFFFF ",
". c #000 	 s s_#000 ",
"* c #F00 	 s s_#F00 ",
/* pixels */
"         *    *    *            ",
"                                ",
"           *  *  *              ",
"            *   *               ",
"      *  **   *                 ",
"            *  *                ",
"           *   *                ",
"                *               ",
"         *     **               ",
"              ....              ",
"              ....              ",
"              ....              ",
"             ......             ",
"           ..........           ",
"          .......  ...          ",
"         ..........  ..         ",
"        ............  ..        ",
"       ..............  ..       ",
"       ...............  .       ",
"      ................. ..      ",
"      ................. ..      ",
"      ....................      ",
"      ....................      ",
"      ....................      ",
"      ....................      ",
"       ... ..............       ",
"       ..................       ",
"        .... ...........        ",
"         ..............         ",
"          ............          ",
"           ..........           ",
"             ......             "
} ;
