/* XPM */
static char * bull[] = {
/* bull pixmap
 * width height ncolors chars_per_pixel */
"60 20 4 1 ",
"  c white 	 s s_white ",
"+ c DarkSlateBlue 	 s s_DarkSlateBlue ",
"& c green 	 s s_green ",
"= c black 	 s s_black ",
/* pixels */
"++++++++++++++++++++++++++++++++++++++++++++++&+&+++++++++++",
"+       +++++++++++++    +    +++++++++++++++&+&+&++++++++++",
"+        ++++++++++++    +    ++++++++++++++&+&+&+&&++++++++",
"++  ++   ++++++++++++++  +++  ++++++++++               +++++",
"++  +++  ++++++++++++++  +++  ++++++++++ ++&+&+&+&+&++ +++++",
"++  +++  ++++++++++++++  +++  ++++++++++ +&+&+&+&+&+&+ +++++",
"++  +++  ++++++++++++++  +++  ++++++++++ &+&+&+&+&+&+& +++++",
"++       ++    +++  +++  +++  +++++++++& +&+&+&+&+&+&+ &++++",
"++      +++    +++  +++  +++  ++++++++&+ &+&+&+&+&+&+& +&+++",
"++  +++  ++++  +++  +++  +++  +++++++++& +&+&+&&&+&+&+ &&+++",
"++  ++++  +++  +++  +++  +++  ++++++++++ &+&+&+&&+&&+& +&+++",
"++  ++++  +++  +++  +++  +++  ++++++++++ +&++&&&&&&+&+ &++++",
"++  ++++  +++  +++  +++  +++  ++++++++++ ++++++&&++&++ +++++",
"++  +++   +++  ++   +++  +++  ++++++++++ ++++++&&+++++ +++++",
"+         +++       +++  +++  ++++++++++ ++++&&&&&&+++ +++++",
"+        +++++       +    +    +++++++++               +++++",
"++++++++++++++++++++++++++++++++++++++++++++++++++++++++++++",
"============================================================",
"&&&&&&&&&&&&&&&&&&&&&&&&&&&&&&&&&&&&&&&&&&&&&&&&&&&&&&&&&&&&",
"&&&&&&&&&&&&&&&&&&&&&&&&&&&&&&&&&&&&&&&&&&&&&&&&&&&&&&&&&&&&"
} ;
