/* XPM */
static char * ppm[] = {
/* ppm pixmap
 * width height ncolors chars_per_pixel */
"64 64 2 1 ",
"  c #000000 	 s s_#000000 ",
". c #FF0000 	 s s_#FF0000 ",
/* pixels */
"                                                                ",
"     .     ..      ..                     ..            ..      ",
"    .     .     ...                         ...           .     ",
"   .     .    ..                               ..          .    ",
"   .   ..    .                                   .          ..  ",
"  .   .    ..           ...........               ..          . ",
" .   .    .         ....           ....             .           ",
"    .    .        ..                   ..            .          ",
"    .   .      ...                       ...          .         ",
"   .   .      .                             .          .        ",
"  .   .     ..        .........              ..         .       ",
" .   .     .      ....         ....            .         .      ",
" .  .     .     ..                  .           .         .     ",
"   .     .    ..                     ..          .         .    ",
"  .     .   ..                         ..         .         .   ",
"  .    .   .                             .         .        .   ",
" .    .   .        .........              .         .        .  ",
"     .   .      ...         ...            .         .        . ",
"    .   .     ..               ..           .         .       . ",
"    .  .    ..                   ..          .        .         ",
"   .  .    .                       .          .        .        ",
"  .  .    .                         .          .        .       ",
"  .  .   .       .......             .         .        .       ",
"  . .   .     ...       ...           .         .       .       ",
" .  .  .    ..             ..          .        .        .      ",
" . .  .    .                 .          .        .       .      ",
"   .  .   .                   .         .        .        .     ",
"  .  .   .                     .         .        .       .     ",
"  .  .  .     .......           .        .        .       .     ",
"  . .  .    ..       ..          .        .       .       .     ",
"  . .  .   .           .         .        .       .        .    ",
" .  . .   .             .         .       .        .       .    ",
" . .  .  .               .        .        .       .       .    ",
" . .  . .                 .       .        .       .       .    ",
" . . .  .   .....         .        .       .       .       .    ",
" . . . .   .     .         .       .       .       .       .    ",
" . . . .  .       .        .       .       .       .       .    ",
" . . . . .         .       .       .       .       .       .    ",
" . . . . .         .       .       .       .       .       .    ",
" . . . . .         .       .       .       .       .       .    ",
"  .. . . .         .       .       .       .      .        .    ",
"  . . .. .         .       .      .       .       .       .     ",
"  . . . . .       .       .       .       .       .       .     ",
"  . . . .  .     .        .       .       .       .       .     ",
"   . . . .  .....        .       .       .       .        .     ",
" . . . .  .             .        .       .       .       .      ",
" .  . . .  .           .        .       .       .        .      ",
"  . . .  .  ..       ..        .        .       .       .       ",
"  .  . .  .   .......         .        .       .        .       ",
"  .  .  .  .                 .        .        .        .       ",
"   .  .  .  ..             ..        .        .        .      . ",
"    .  .  .   ...       ...         .        .        .       . ",
" .  .   .  .     .......           .        .         .      .  ",
"  .  .   .  ..                   ..        .         .      .   ",
"  .   .   .   ..               ..         .         .       .   ",
"   .   .   .    ...         ...          .         .       .    ",
" .  .   .   ..     .........           ..         .       .     ",
" .   .   .    ..                     ..          .       .      ",
"  .   .   .     ..                 ..           .       .       ",
"   .   .   .      ....         ....            .       .        ",
" .  .   .   ..        .........              ..       .         ",
"  . .    .    .                             .        .          ",
"   . .    .    ...                       ...        .           ",
"                                                                "
} ;
