/* XPM */
static char * ppm[] = {
/* ppm pixmap
 * width height ncolors chars_per_pixel */
"64 64 3 1 ",
"  c #FFFFFF 	 s s_#FFFFFF ",
". c #000000 	 s s_#000000 ",
"j c #e0e000 	 s s_#e0e000 ",
/* pixels */
"                                                                ",
"                                                                ",
"                                                                ",
"                                                                ",
"                                                                ",
"                                                                ",
"                                                                ",
"                                                                ",
"                                                                ",
"                                                                ",
"                                                                ",
"                                                                ",
"                                                                ",
"                                                                ",
"                                                                ",
"                                        .                       ",
"                                        .                       ",
"                                        .                       ",
"    .....                              ...                      ",
"    .j...                              ...                      ",
"    ...j.                             .....                     ",
"    .....                             .....                     ",
"    .j...                           ..........                  ",
"    ...j.                           .  .  .  .                  ",
"    .....                           .  .  .  .               .. ",
"    ..j..                           ..........               .. ",
"    .....                           .  ....  .               .. ",
"    .j...                           .  ....  .               .. ",
"    .....           ....            .......... ...........   .. ",
"    ...j.           .  .    .....   ....  .... . .j. .  ..   .. ",
"    .....           ....    .j. .   ....  .... ...........   .. ",
"    .....           .  .    .j. .   .......... . ..j..   .   .. ",
"    .   .           ....    .....   .  ....... ...........   .. ",
"    .....           .  .    .j...   .  ....... .  .j.  .j.  ....",
"    ...j.           ....    .j...   ....  .  . ...........  .  .",
"    .....           ....    ...j.   ....  .  . . .j. .   .  ....",
"    ..j..           ....    ...j.   .......... ...........  .  .",
"    ..........      .  .    .....   .......... ..  .j..  .  ....",
"    .....  ...      ....    .....   .......... ...........  ....",
"    .......  .      ....    ...j.   .......... ..  .j.   .  ....",
"    .j........      .  .    ...j.   .  ....  . ...........  .  .",
"    .....  ...    .......   .....   .  ....  . . .  .   ..  ....",
"    ..j.......    .     .   ...j.............. ...........  .j..",
"    .......  .    .......   ...j........  .  . . .j..  .j.  ....",
"    ...j.  ...  .........   ......j.....  .  . ...........  ..j.",
"    ..........  .       .   .j. .j............ . .j..j. ..  ....",
"..  ...j...  .  .........   .j. .....  ....... ..............  .",
"..  .....  ...  .........   ......j..  ..........j...  .j. .....",
".   .......  .  .................j........................j..  .",
"..  ...j......  .       .....j..........  ......  ....  ..j.....",
"..  .j...................j...j..........  ...................  .",
" .  .......  ....       .......j................j. ..j.  .......",
"..  .....  ....j...............j..j........  ..............j. ..",
".....  ....................j.....j.........  ....j...  .j..j....",
"..j......  ....................j...........................j. ..",
".....j.....  ....       .j.....j..j........  ...j..  ......j....",
" ..j..........j..........j...j...j.........  ..........j.....  .",
".....j...  ......       .....j..................   .......j.....",
"..j........  .....................j..  ...................j..  .",
" .....  .......j....    ...j.....j...  .........j.....  ..j.....",
"...j.....................j................................j..  .",
"................................................................",
"................................................................",
"................................................................"
} ;
