/* XPM */
static char * crab45[] = {
/* crab45 pixmap
 * width height ncolors chars_per_pixel */
"28 28 6 2 ",
".  c SkyBlue 	 s s_SkyBlue ",
"x  c orange 	 s s_orange ",
"*  c #ff72c2 	 s s_#ff72c2 ",
"+  c SteelBlue 	 s s_SteelBlue ",
"G  c black 	 s s_black ",
"a  c LightGrey 	 s s_LightGrey ",
/* pixels */
". . . . . . . . . . * * * * * * * . . . . . . . . . . . ",
". . . . . . . . * x x x x x x x * . . . . . . . . . . . ",
". . . . . . . * * * * * * * x x * . . . . . . . . . . . ",
". . . . . . . . . . . . . * x x x * . . . . . . . . . . ",
". . . . . . . . . . * x x x x * x x . . . . . . . . . . ",
". . . . . . . . + + * * * * * * * x x . . . . . . . . . ",
". . . . . . . . . . . . . . . . . * x x . . . . . * . . ",
". . * . . . . . . . . . . . . . . . * x . . * * x x . . ",
". * * . . + . . . . . . + + x x + * * x * * x x x + . . ",
". x * . . + . . . . . . . . + x + * x x x x x + + . . . ",
"* x * . * * . . . . . . + . + x * * x x x * * . . . . . ",
"* x * . x * . . . . . + x + + x x x x x x * * . . * * * ",
"* x * . x * . . + . + x x x x x x x x x x * * * * x x x ",
"* x * * x * . . + . . + x x x x x x x x x * * x x x G G ",
"* x x x x * . . x + + + x x x x x x x x x x x * * G G . ",
"* x x x * * . . x x x x x x x x x x x x x x x * * G G . ",
"* * * x . * . . + + * x x x x x x x x x x x x * * G G . ",
". . . * . x * . * * * x x x x x x x x x x x x x * * * * ",
". . . . . x x * * x x x x x x x x x x x x x x * x x x x ",
". . . . . . x x x x x x x x x x x x x x x x * * G G G x ",
". . . . . . . . * x x x x x x x x x x x x x * * G G + . ",
". . . . . . . . * x * * * * x x x x x x x * * * G G . . ",
". . . . . . . * x x * * * * x x x x x * * * * * * G G . ",
". . . . . . . * x + . . * x * * * x * * * * * G G G G . ",
". . . . . . . x x + . . * x * * * * x G G G * G G G . . ",
". . . . . . * x + . . * x x G G G * x G G G G G . . . . ",
". . . . . . . . . . . * x G G G G * x G + . G G . . . . ",
". . . . . . . . . . . * x G . . . * x x . . . . . . . . "
} ;
