/* XPM */
static char * eye19[] = {
/* eye19 pixmap
 * width height ncolors chars_per_pixel */
"32 32 3 2 ",
"   c #FFFFFFFFFFFF 	 s s_#FFFFFFFFFFFF ",
".  c #000 	 s s_#000 ",
"X  c #FFFFB0B0B0B0 	 s s_#FFFFB0B0B0B0 ",
/* pixels */
"                          . . . . . . .                         ",
"                    . . . X X X X X X X . . .                   ",
"                . . X X X X X X X X X X X X X . .               ",
"              . X X X X X X X X X X X X X X X X X .             ",
"            . X X X X X X X X X X X X X X X X X X X .           ",
"          . X X X X X X X X X X X X X X X X X X X X X .         ",
"        . X X X X X X X X X X X X X X X X X X X X X X X .       ",
"        . X X X X X X X X X X X X X X X X X X X X X X X .       ",
"      . X X X X X X X X X X X X X X X X X X X X X X X X X .     ",
"    . . X X X X X X X X X X X X X X X X X X X X X X X X X .     ",
"    . . X X X X X X X X X X X X X X X X X X X X X X X X X . .   ",
"  . X . X X X X X X X X X X X X X X X X X X X X X X X X X . X . ",
"  . . X X X X X X X X X X X X X X X X X X X X X X X X X X X . . ",
"  . . X X X X X X X X X X X X X X X X X X X X X X X X X X X . . ",
"    . X X X X X X X X X X X X X X X X X X X X X X X X X X X .   ",
"      . X X X X X X X X X X X X X X X X X X X X X X X X X .     ",
"      . X X X X X X X X X X X X X X X X X X X X X X X X X .     ",
"        . X X X X X X X X X X X X X X X X X X X X X X X .       ",
"      . . X X X X X X X X X X X X X X X X X X X X X X X . .     ",
"      . X . X X X X X X X X X X X X X X X X X X X X X . X .     ",
"      . X X . X X X X X X X X X X X X X X X X X X X . X X .     ",
"        . . . . X X X X X X X X X X X X X X X X X . . . .       ",
"                . . . X X X X . . . X X X X . . .               ",
"                      . X X .       . X X .                     ",
"                      . X X .       . X X .                     ",
"                      . X X .       . X X .                     ",
"                      . X X .     . X X X X .                   ",
"                    . X X X X . . X X X X X X .                 ",
"                  . X X X X X X . . . . . . .                   ",
"                    . . . . . .                                 ",
"                                                                ",
"                                                                "
} ;
