/* XPM */
static char * fils[] = {
/* fils pixmap
 * width height ncolors chars_per_pixel */
"32 32 2 2 ",
"   c #FFFFFFFFFFFF 	 s s_#FFFFFFFFFFFF ",
".  c #000 	 s s_#000 ",
/* pixels */
"                      . . . . . . . . . . . . . . .             ",
"                    . .   .   .   .   .   .   .   .             ",
"                  .   . .   .   .   .   .   .   . .             ",
"                .   . .                       .   .             ",
"              .   .   .                         . .             ",
"            .   .     .                       .   .             ",
"          . . . . . . .                         . .             ",
"          . .                                 .   .             ",
"          . .                                   . .             ",
"          . .                                 .   .             ",
"          . .                                   . .             ",
"          . .                                 .   .             ",
"          . .                                   . .             ",
"          . .                                 .   .             ",
"          . .                                   . .             ",
"          . .                                 .   .             ",
"          . .                                   . .             ",
"          . .                                 .   .             ",
"          . .                                   . .             ",
"          . .                                 .   .             ",
"          . .                                   . .             ",
"          . .                                 .   .             ",
"          . .                                   . .             ",
"          . .                                 .   .             ",
"          . .                                   . .             ",
"          . .                                 .   .             ",
"          . .                                   . .             ",
"          . .                                 .   .             ",
"          . .                                   . .             ",
"          . .                                 .   .             ",
"          . . . . . . . . . . . . . . . . . . . . .             ",
"          . . . . . . . . . . . . . . . . . . . . .             "
} ;
