/* XPM */
static char * jolifond[] = {
/* jolifond pixmap
 * width height ncolors chars_per_pixel */
"47 47 4 2 ",
"   c #A800A800A800 	 s s_#A800A800A800 ",
".  c #000 	 s s_#000 ",
"X  c #FFFFFFFFFFFF 	 s s_#FFFFFFFFFFFF ",
"o  c #540054005400 	 s s_#540054005400 ",
/* pixels */
"                                        . . X X X . .                                         ",
"                                      .     . X .     .                                       ",
"        .     o   o o o X o     .       .     .     .       .     o   o o o X o     .         ",
"          .   o   o o o X o   .               .               .   o   o o o X o   .           ",
"    .       o o o o o o o o o       .     . . X . .     .       o o o o o o o o o       .     ",
"      .     o o o o o o o o o     .     . X X . X X .     .     o o o o o o o o o     .       ",
"        o o X o o o o o o o X o o     . . . X . X . . .     o o X o o o o o o o X o o         ",
"    o o o o o X o o o o o X o o o o o     . X . X .     o o o o o X o o o o o X o o o o o     ",
"        o o o o X o o o X o o o o         . . X . .         o o o o X o o o X o o o o         ",
"    o o o o o o o X o   o o o o o o o     . . X . .     o o o o o o o   o X o o o o o o o     ",
"                  o o                     . . X . .                     o o                   ",
"    o o o o o o o     o o o                 . . .                 o o o     o o o o o o o     ",
"        o o o o X o   o o o o   .             .             . X o o o o   o X o o o o         ",
"    o o o o o X o o   o o o o     .     . .   .   . .     . X X o o o o   o o X o o o o o     ",
"        o o X o o o     o o o     .   .     . . .     .   . X X o o o     o o o X o o         ",
"      .     o o o o           .   .     .     .     .     . X .           o o o o     .       ",
"    .       o o o o     .       .             .             .       .     o o o o       .     ",
"          .   o   .       . . . X .   o o o X .   o o o X .   . . .       o   .   .           ",
"        .     o   .                 o o o o o X o o o o o                 o   .     .         ",
"  .         .               .     o o o X o o o o o X o o o     .               .         .   ",
".   .     . .             .   .   o o X X X o o o X X X o o   .   .             . .     .   . ",
".       . X . . . . .     .       o o o X o o o o o X o o o       .     . . . . . X .       . ",
"X .     . X X X . . . .     .       o o o o o X o o o o o       .     . . . . X X X .     .   ",
"X X . . X . . . X X X . . . . . . . X o o o X . X o o o X . . . . . . . X X X . . . X . .     ",
"X .     . X X X . . . .     .       o o o o o X o o o o o       .     . . . . X X X .     .   ",
".       . X . . . . .     .       o o o X o o o o o X o o o       .     . . . . . X .       . ",
".   .     . .             .   .   o o X X X o o o X X X o o   .   .             . .     .   . ",
"  .         .               .     o o o X o o o o o X o o o     .               .         .   ",
"        .     o   .                 o o o o o X o o o o o                 o   .     .         ",
"          .   o   .       . . . X .   o o o X .   o o o X .   . . .       o   .   .           ",
"    .       o o o o     .       .             .             .       .     o o o o       .     ",
"      .     o o o o           .   .     .     .     .     .   .           o o o o     .       ",
"        o o X o o o     o o o     .   .     . . .     .   .     o o o     o o o X o o         ",
"    o o o o o X o o   o o o o     .     . .   .   . .     .     o o o o   o o X o o o o o     ",
"        o o o o X o   o o o o   .             .             .   o o o o   o X o o o o         ",
"    o o o o o o o     o o o                 . . .                 o o o     o o o o o o o     ",
"                  o o                     . . X . .                     o o                   ",
"    o o o o o o o X o   o o o o o o o     . . X . .     o o o o o o o   o X o o o o o o o     ",
"        o o o o X o o o X o o o o         . . X . .         o o o o X o o o o o o o o         ",
"    o o o o o X o o o o o X o o o o o     . X . X .     o o o o o X o o o o o X o o o o o     ",
"        o o X o o o o o o o X o o     . . . X . X . . .     o o X o o o o o o o X o o         ",
"      .     o o o o o o o o o     .     . X X . X X .     .     o o o o o o o o o     .       ",
"    .       o o o o o o o o o       .     . . X . .     .       o o o o o o o o o       .     ",
"          .   o   o o o X .   .               .               .   o   o o o   o   .           ",
"        .     o   o o o X .     .       .     .     .       .     o   o o o   o     .         ",
"                                      .     .   .     .                                       ",
"                                        . .       . .                                         "
} ;
