/* XPM */
static char * koala [] = {
/*  pixmap
 * width height ncolors chars_per_pixel */
"38 38 6 2 ",
"   c LightGrey 	 s s_LightGrey ",
"*  c black 	 s s_black ",
"o  c DarkSlateGrey 	 s s_DarkSlateGrey ",
"X  c brown 	 s s_brown ",
".  c tan 	 s s_tan ",
"x  c wheat 	 s s_wheat ",
/* pixels */
"                                                                            ",
"  * *                                                                 * *   ",
"  *                                                                     *   ",
"            * * * * * * * * *                 * * * * * * * * *             ",
"        * * * * * * * * * * * *             * * * * * * * * * * * *         ",
"      * * * * . . . . . . . * * *         * * * . . . . . . . * * * *       ",
"    * * * . . . x x x x x . . * *         * * . . x x x x x . . . * * *     ",
"    * * . . x x x x x x x x . * * * * * * * * . x x x x x x x x . . * *     ",
"    * * . x x x x x x x x x . . * * * * * * . . x x x x x x x x x . * *     ",
"    * * . x x x x x x x x . . . . . . . . . . . . x x x x x x x x . * *     ",
"    * * . x x x x x x x . . . . . . . . . . . . . . x x x x x x x . * *     ",
"    * * . x x x x x x . . . . . . . . . . . . . . . . x x x x x x . * *     ",
"    * * . x x x x x . . . . . . . . . . . . . . . . . . x x x x x . * *     ",
"    * * . . x x x . . . . . . . . . . . . . . . . . . . . x x x . . * *     ",
"    * * * . . . x . . . o o o . . . X X . . . o o o . . . x . . . * * *     ",
"      * * * * . . . . o o o o o . X X X X . o o o o o . . . . * * * *       ",
"          * * * * . . o o o o o . X X X X . o o o o o . . * * * *           ",
"            * * * * . . o o o . . X X X X . . o o o . . * * * *             ",
"                * * . . . . . . . X X X X . . . . . . . * *                 ",
"                * * . . . . . . . X X X X . . . . . . . * *                 ",
"                * * . . . . . . . X X X X . . . . . . . * *                 ",
"                * * . . . . . . . . X X . . . . . . . . * *                 ",
"                * * * . . . . . . . . . . . . . . . . * * *                 ",
"                  * * * * . . . . . . . . . . . . * * * *                   ",
"                    * * * * * * * * * * * * * * * * * *                     ",
"                        * * * * * * * * * * * * * *                         ",
"                                                                            ",
"                                                                            ",
"                                                                            ",
"                                                                            ",
"                                                                            ",
"                                                                            ",
"                                                                            ",
"                                                                            ",
"                                                                            ",
"  *                                                                     *   ",
"  * *                                                                 * *   ",
"                                                                            "
} ;
