/* XPM */
static char * lambda[] = {
/* lambda pixmap
 * width height ncolors chars_per_pixel */
"32 32 3 2 ",
"   c #FFFFFFFFFFFF 	 s s_#FFFFFFFFFFFF ",
".  c #FFFF00000000 	 s s_#FFFF00000000 ",
"X  c #000 	 s s_#000 ",
/* pixels */
"                        . . . . . . . .                         ",
"                  . . . . . . . . . . . . . .                   ",
"              . . . . . . . . . . . . . . . . . .               ",
"            . . . . . . .             . . . . . . .             ",
"          . . . . .                         . . . . .           ",
"        . . . .                                 . . . .         ",
"      . . . .                                 . . . . . .       ",
"    . . . .                                 . . . . . . . .     ",
"  . . . .                                 . . . . .   . . .     ",
"  . . . .                               . . . . .     . . . .   ",
"  . . .                               . . . . .         . . .   ",
"  . . .         X                   . . . . .           . . .   ",
". . . .       X X X     X X X X X . . . . . X X X       . . . . ",
". . .         X X X     X X X X . . . . . X X X X         . . . ",
". . .           X             . . . . .                   . . . ",
". . .                       . . . . .                     . . . ",
". . .                     . . . . .                       . . . ",
". . .           X       . . . . .                         . . . ",
". . .         X X X   . . . . . X X X X X X X X X         . . . ",
". . . .       X X X . . . . . X X X X X X X X X X       . . . . ",
"  . . .         X . . . . .                             . . .   ",
"  . . .         . . . . .                               . . .   ",
"  . . . .     . . . . .                               . . . .   ",
"    . . .   . . . . .                                 . . .     ",
"    . . . . . . . .                                 . . . .     ",
"      . . . . . .                                 . . . .       ",
"        . . . .                                 . . . .         ",
"          . . . . .                         . . . . .           ",
"            . . . . . . .             . . . . . . .             ",
"              . . . . . . . . . . . . . . . . . .               ",
"                  . . . . . . . . . . . . . .                   ",
"                        . . . . . . . .                         "
} ;
