/* XPM */
static char * martini[] = {
/* martini pixmap
 * width height ncolors chars_per_pixel */
"32 32 4 2 ",
"   c #FFFFFFFFFFFF 	 s s_#FFFFFFFFFFFF ",
".  c #000 	 s s_#000 ",
"X  c #7F7FFFFFFFFF 	 s s_#7F7FFFFFFFFF ",
"o  c #FFFF00000000 	 s s_#FFFF00000000 ",
/* pixels */
"                                                                ",
"                                                                ",
"                                                                ",
"                                                                ",
"                                                                ",
"                                                                ",
"                                              .                 ",
"                                            .                   ",
"                                          .                     ",
"          . . . . . . . . . . . . . . . . . . . . . .           ",
"            .                           .         .             ",
"              .                       .         .               ",
"                . X X X X X X X X X . X X X X .                 ",
"                  . X X X X X X o o o X X X .                   ",
"                    . X X X X o o o o o X .                     ",
"                      . X X X o o o o o .                       ",
"                        . X X o o o o .                         ",
"                          . X X o o .                           ",
"                            . X X .                             ",
"                              . .                               ",
"                              . .                               ",
"                              . .                               ",
"                              . .                               ",
"                              . .                               ",
"                              . .                               ",
"                              . .                               ",
"                              . .                               ",
"                              . .                               ",
"                              . .                               ",
"                          . .     . .                           ",
"                      . .             . .                       ",
"                  . . . . . . . . . . . . . .                   "
} ;
