/* XPM */
static char * ppm[] = {
/* ppm pixmap
 * width height ncolors chars_per_pixel */
"64 52 2 1 ",
"  c #000000 	 s s_#000000 ",
". c #00FF00 	 s s_#00FF00 ",
/* pixels */
"                                                                ",
"                                                                ",
"                                                                ",
"                                            .... ...            ",
"                                           .   ..   .           ",
"                                           .   ..   .           ",
"                                  ..........    .   .           ",
"    .                         ......       ......   .           ",
"             . ...          ....             . .....            ",
"                  ....    ...                     ....          ",
"                        ...       ..........   ...   ...        ",
"                   ......  ......        ..    ...     ....     ",
"         ..............  ..........    ...     ...      ...     ",
"    .......    ........  ...     ...  ........      .   ....    ",
"                     .. ...       ..             ... .  ...     ",
"                     .....         ..              .. ...       ",
"                      ....    .    ..           .......         ",
"            ..... .     ..   . .   ..       .... .  .           ",
"                  ....  ..    .    ..     ....  ..   .          ",
"        .               ..         ........ .     .  .          ",
"                         ..       ..        .  .  ....          ",
"             .....       ...     ...       ..     ..            ",
"                 .....    .........  ..  .  ..   .              ",
"                            .....     ...    ....               ",
"                                                                ",
"                                                                ",
"                                                                ",
"                                                                ",
"                                                                ",
"                                            .... ...            ",
"                                           .   ..   .           ",
"                                           .   ..   .           ",
"                                  ..........    .   .           ",
"    .                         ......       ......   .           ",
"             . ...          ....             . .....            ",
"                  ....    ...                     ....          ",
"                        ...       ..........   ...   ...        ",
"                   ......  ......        ..    ...     ....     ",
"         ..............  ..........    ...     ...      ...     ",
"    .......    ........  ...     ...  ........      .   ....    ",
"                     .. ...       ..             ... .  ...     ",
"                     .....         ..              .. ...       ",
"                      ....    .    ..           .......         ",
"            ..... .     ..   . .   ..       .... .  .           ",
"                  ....  ..    .    ..     ....  ..   .          ",
"        .               ..         ........ .     .  .          ",
"                         ..       ..        .  .  ....          ",
"             .....       ...     ...       ..     ..            ",
"                 .....    .........  ..  .  ..   .              ",
"                            .....     ...    ....               ",
"                                                                ",
"                                                                "
} ;
