/* XPM */
static char * next[] = {
/* next pixmap
 * width height ncolors chars_per_pixel */
"64 64 8 1 ",
"0 c DimGrey 	 m white 	 s s_DimGrey ",
"+ c black 	 m black 	 s s_black ",
"- c black 	 m black 	 s s_black ",
". c black 	 m black 	 s s_black ",
"y c yellow 	 m white 	 s s_yellow ",
"g c green 	 m white 	 s s_green ",
"r c red 	 m white 	 s s_red ",
"o c orange 	 m white 	 s s_orange ",
/* pixels */
"00000000000000000000000000000000000000000++000000000000000000000",
"000000000000000000000000000000000000000++++000000000000000000000",
"0000000000000000000000000000000000000+++++++00000000000000000000",
"00000000000000000000000000000000000+++++++++00000000000000000000",
"000000000000000000000000000000000++++++++++++0000000000000000000",
"0000000000000000000000000000000++++yyyyyy++++0000000000000000000",
"00000000000000000000000000000++++yyyyyyyyyy+++000000000000000000",
"000000000000000000000000000+++++yyyy++++yyyy++000000000000000000",
"0000000000000000000000000+++++++yy++++++++yy+++00000000000000000",
"00000000000000000000000++++++++yyy+++++++yyyy++00000000000000000",
"000000000000000000000+++ooo++++yy++++++yyyy+++++0000000000000000",
"0000000000000000000+++++ooo++++yy++++yyyy+++++++0000000000000000",
"00000000000000000++++++++ooo+++yy++yyyy++++yy++++000000000000000",
"000000000000000++++++++++ooo+++yyyyyy++++++yy++++000000000000000",
"0000000000000+++++++++++++ooo++yyyy+++++++yyy+++++00000000000000",
"00000000000+++++++++++++++ooo+++yy++++++++yy++++++00000000000000",
"00000000000++oo++++++++++++ooo++yyyy++++yyyy+++++++0000000000000",
"000000000000+oooooo++++++++ooo+++yyyyyyyyyy++++++++0000000000000",
"0000000000-0++ooooooooo+++++ooo++++yyyyyy++++++rr+++000000000000",
"0000000000-00+ooooooooooooo+ooo++++++++++++++rrrrr++000000000000",
"0000000000--0++ooo+ooooooooooooo+++++++++++rrrrrrr+++00000000000",
"000000000---00+ooo+++++ooooooooo+++++++++rrrrrrr+++++00000000000",
"000000000----0++ooo++++++++oooooo++++++rrrrrrr++++++++0000000000",
"000000000----00+ooo++++++++++++oo++++rrrrrrrrr++++++++0000000000",
"00000000------0++ooo+++++++++++++++++rrrrr+rrr+++++++++000000000",
"00000000------00+ooo++++++++++++++++++rr+++rrrr++++++++000000000",
"00000000-------0++ooo+++++++++++gg++++++++++rrr+++++++++00000000",
"0000000--------00+ooo+++++++++++ggg++++++++++rrr++++++++00000000",
"0000000---------0++ooo+++++++++ggg+++++++++++rrr+++++++++0000000",
"0000000---------00+ooo+++++++++ggg++++++++++++rrr++++++++0000000",
"000000-----------0+++++++++++++ggg++++++++++++rrr+++++++++000000",
"000000-----------00+++g+++++++ggg++++++++++++++rrr++++++++000000",
"0000000-----------0++ggggg++++ggg++++++++++++++rrr++++++00000000",
"0000000-----------00+gggggggg+ggg+++++++++++++++rrr+++000.000000",
"00000000-----------0+++ggggggggg++++++++++++++++r+++000...000000",
"00000000-----------00+++++ggggggggg+++++++++++++++000.....000000",
"000000000-----------0++++++++ggggggggg++++++++++000......0000000",
"000000000-----------00++++++ggg+gggggggg++++++000........0000000",
"0000000000-----------0++++++ggg++++ggggg++++000..........0000000",
"0000000000-----------00+++++ggg+++++++g+++000...........00000000",
"00000000000-----------0++++ggg++++++++++000.............00000000",
"00000000000-----------00+++ggg++++++++000...............00000000",
"000000000000-----------0+++ggg++++++000................000000000",
"000000000000-----------00+ggg+++++000..................000000000",
"0000000000000-----------0++gg+++000....................000000000",
"0000000000000-----------00++++000.....................0000000000",
"00000000000000-----------0++000.......................0000000000",
"00000000000000-----------0000.........................0000000000",
"000000000000000-----------0..........................00000000000",
"000000000000000-----------0........................0000000000000",
"0000000000000000---------00......................000000000000000",
"0000000000000000---------0.....................00000000000000000",
"00000000000000000--------0...................0000000000000000000",
"00000000000000000-------00.................000000000000000000000",
"000000000000000000------0................00000000000000000000000",
"000000000000000000------0..............0000000000000000000000000",
"0000000000000000000----00............000000000000000000000000000",
"0000000000000000000----0...........00000000000000000000000000000",
"00000000000000000000---0.........0000000000000000000000000000000",
"00000000000000000000--00.......000000000000000000000000000000000",
"000000000000000000000-0......00000000000000000000000000000000000",
"000000000000000000000-0....0000000000000000000000000000000000000",
"00000000000000000000000..000000000000000000000000000000000000000",
"0000000000000000000000000000000000000000000000000000000000000000"
} ;
