/* XPM */
static char * porsche[] = {
/* porsche pixmap
 * width height ncolors chars_per_pixel */
"64 64 4 1 ",
"  c slateblue 	 s s_slateblue ",
". c yellow 	 s s_yellow ",
"r c red	 s s_red ",
"b c black 	 s s_black ",
/* pixels */
"                                                                ",
"                                                                ",
"        bbbbbbbbbbbbbbbbbbbbbbbbbbbbbbbbbbbbbbbbbbbbbbbb        ",
"        bbbbbbbbbbbbbbbbbbbbbbbbbbbbbbbbbbbbbbbbbbbbbbbb        ",
"        bb............................................bb        ",
"        bb..bbbb..bbbb..bbbb..bbbb..bbbb..b..b..bbbb..bb        ",
"        bb..b..b..b..b..b..b..b..b..b..b..b..b..b.....bb        ",
"        bb..b..b..b..b..b..b..b.....b.....b..b..b.....bb        ",
"        bb..bbbb..b..b..bbb...bbbb..b.....bbbb..bbbb..bb        ",
"        bb..b.....b..b..b..b.....b..b.....b..b..b.....bb        ",
"        bb..b.....b..b..b..b..b..b..b..b..b..b..b.....bb        ",
"        bb..b.....bbbb..b..b..bbbb..bbbb..b..b..bbbb..bb        ",
"        bb............................................bb        ",
"        bbbbbbbbbbbbbbbbbbbbbbbbbbbbbbbbbbbbbbbbbbbbbbbb        ",
"        bb.....................bbbbbbbbbbbbbbbbbbbbbbbbb        ",
"        bb......b...b...bb.....bbbbbbbbbbbbbbbbbbbbbbbbb        ",
"        bb.....b...b...b....b..bbbbbbbbbbbbbbbbbbbbbbbbb        ",
"        bb....bb..bb.bbbbbbb...bbbbbbbbbbbbbbbbbbbbbbbbb        ",
"        bb...bbbbbbbb......bb..bbrrrrrrrrrrrrrrrrrrrrrbb        ",
"        bb..bbbb...............bbrrrrrrrrrrrrrrrrrrrrrbb        ",
"        bb.bbb.................bbrrrrrrrrrrrrrrrrrrrrrbb        ",
"        bb..........b..b.......bbrrrrrrrrrrrrrrrrrrrrrbb        ",
"        bb.....b...b..b........bbrrrrrrrrrrrrrrrrrrrrrbb        ",
"        bb....b...b..b..bbbbbbbbbbbbbbbbbbbbbbbbbbbbbbbb        ",
"        bb....b.bbbbbbbbb..............bbbbbbbbbbbbbbbbb        ",
"        bb...bbbb.......bbbbbbbbbbbbbbbbbbbbbbbbbbbbbbbb        ",
"        bb..bbb.........b..............bbbbbbbbbbbbbbbbb        ",
"        bb.bbb..........b...bbb........bbbbbbbbbbbbbbbbb        ",
"        bb.........b..b.b..bbbbb.......bbbbbbbbbbbbbbbbb        ",
"        bb.....b..b..b..b..b.bbb.....b.brrrrrrrrrrrrrrbb        ",
"        bb....b..b..b..bb....bbb....bb.brrrrrrrrrrrrrrbb        ",
"        bb...bb.bbbbbbb.b....bbb....bb.brrrrrrrrrrrrrrbb        ",
"        bb..bbbbb......bb...bbbbb...b..brrrrrrrrrrrrrrbb        ",
"        bb.bbb..........b.bbbbbbbbbbb..brrrrrrrrrrrrrrbb        ",
"        bb..............b.b.bbbbbbbbb..brrrrrrrrrrrrrrbb        ",
"        bbbbbbbbbbbbbbbbb.b.b....bbbb..bbbbbbbbbbbbbbbbb        ",
"        bbbbbbbbbbbbbbbbb...b.....b.b..b..............bb        ",
"        bbbbbbbbbbbbbbbbb........bb.bb.b...b..b.......bb        ",
"         bbbbbbbbbbbbbbbb........b..b..b..b..b...b...bb         ",
"         bbbbbbbbbbbbbbbb.......b..b...b.b..b...b....bb         ",
"         bbbbbbbbbbbbbbbbb............b.bbbbbbbbbb...bb         ",
"          bbrrrrrrrrrrrrrrb..........bbbb........bb.bb          ",
"          bbrrrrrrrrrrrrrrrb........bbbb............bb          ",
"           bbrrrrrrrrrrrrrrrbbbbbbbb.......b..b....bb           ",
"           bbrrrrrrrrrrrrrrrrrrbb.....b...b..b..b..bb           ",
"            bbrrrrrrrrrrrrrrrrrbb....b...b..b..b..bb            ",
"            bbrrrrrrrrrrrrrrrrrbb...bb.bbbbbbbb...bb            ",
"             bbbbbbbbbbbbbbbbbbbb...bbbb......bb.bb             ",
"              bbbbbbbbbbbbbbbbbbb..bbb...........b              ",
"              bbbbbbbbbbbbbbbbbbb.bbb...........bb              ",
"               bbbbbbbbbbbbbbbbbb..............bb               ",
"                bbbbbbbbbbbbbbbbb...b.b.b.....bb                ",
"                 bbbbbbbbbbbbbbbb..b.b.b..b..bb                 ",
"                  bbrrrrrrrrrrrbb..bbbbbbb..bb                  ",
"                   bbrrrrrrrrrrbb.bbb....b.bb                   ",
"                    bbrrrrrrrrrbb.bb......bb                    ",
"                     bbbrrrrrrrbb.......bbb                     ",
"                      bbbbrrrrrbb.....bbbb                      ",
"                        bbbbrrrbb...bbbb                        ",
"                          bbbbrbb.bbbb                          ",
"                            bbbbbbbb                            ",
"                              bbbb                              ",
"                               bb                               ",
"                                                                "
} ;
