<?xml version="1.0" encoding="UTF-8" standalone="no"?>
<svg
   xmlns:dc="http://purl.org/dc/elements/1.1/"
   xmlns:cc="http://creativecommons.org/ns#"
   xmlns:rdf="http://www.w3.org/1999/02/22-rdf-syntax-ns#"
   xmlns:svg="http://www.w3.org/2000/svg"
   xmlns="http://www.w3.org/2000/svg"
   width="53.494137pt"
   height="62.419994pt"
   viewBox="0 0 53.493604 72.818996"
   version="1.1">
  <title>IRAF logo</title>
  <metadata>
    <rdf:RDF>
      <cc:Work rdf:about="">
        <dc:format>image/svg+xml</dc:format>
        <dc:type rdf:resource="http://purl.org/dc/dcmitype/StillImage" />
        <dc:title>IRAF logo</dc:title>
        <dc:date>1987</dc:date>
        <dc:creator>
          <cc:Agent>
            <dc:title>Clark Enterline, NOAO</dc:title>
          </cc:Agent>
        </dc:creator>
        <dc:publisher>
          <cc:Agent>
            <dc:title>National Optical Astronomy Observatory</dc:title>
          </cc:Agent>
        </dc:publisher>
        <dc:source>IRAF newsletter #2, September 1987</dc:source>
        <cc:license
           rdf:resource="http://creativecommons.org/licenses/by/4.0/" />
      </cc:Work>
      <cc:License
         rdf:about="http://creativecommons.org/licenses/by/4.0/">
        <cc:permits
           rdf:resource="http://creativecommons.org/ns#Reproduction" />
        <cc:permits
           rdf:resource="http://creativecommons.org/ns#Distribution" />
        <cc:requires
           rdf:resource="http://creativecommons.org/ns#Notice" />
        <cc:requires
           rdf:resource="http://creativecommons.org/ns#Attribution" />
        <cc:permits
           rdf:resource="http://creativecommons.org/ns#DerivativeWorks" />
      </cc:License>
    </rdf:RDF>
  </metadata>
  <g transform="matrix(0.857,0,0,1,-10.728436,-12.28923)">
    <path
       style="display:inline;fill:#ffffff;fill-opacity:1;fill-rule:nonzero;stroke:none;stroke-width:0.853338"
       d="m 28.133489,12.28923 -1.303726,20.905871 -0.835093,7.909523 -1.024453,7.202988 -1.950821,10.80563 -5.209453,25.994987 1.674273,-2.504985 1.765547,-2.193015 2.14018,-2.504985 3.43982,-3.602644 4.278999,-3.991462 0.836455,-1.409632 0.649819,-2.504989 0.653906,-2.897252 3.066548,2.11387 6.789726,-6.499893 0.83918,-0.703095 L 42.454035,55.5106 41.33967,52.693635 40.594489,49.090994 v -0.783382 l 1.674273,-1.095359 0.836454,-1.018511 0.743819,-2.037024 0.09536,-2.349 v -1.406189 l -0.280634,-2.193011 -0.279273,-2.113871 -0.649819,-2.193011 -0.559907,-2.193012 -0.745181,-2.11387 -0.835093,-2.504989 -0.74518,-1.48877 -1.020367,-1.801894 -1.024453,-1.407336 -1.301,-1.881035 -1.395,-1.721606 -2.048907,-2.349 z m 5.58,14.409418 0.651181,2.189571 0.743819,1.801893 0.370546,2.504989 0.465908,2.899546 0.094,3.208083 -0.279272,1.098799 -0.374634,1.094213 -0.835093,1.095358 -0.836454,0.706536 z m 7.716093,0 1.119814,2.896106 0.741094,2.11387 0.653906,2.896106 0.929092,2.897253 0.370547,3.602641 0.280635,2.193012 0.185273,3.600347 0.279273,3.211523 -0.279273,2.896106 -0.836455,5.089118 4.091001,2.349 3.349907,2.349 3.625093,2.820405 0.464546,-0.315417 0.280634,-0.859083 3.160547,1.642465 0.094,2.116165 6.32518,3.915762 1.670186,1.406193 2.700087,2.193009 3.345818,2.897251 4.279002,3.993764 -0.649819,-2.504992 -1.115728,-2.896105 -1.674272,-3.602644 -5.860635,-10.806773 -2.79,-4.698 -5.765273,-8.297201 -3.999727,-5.796799 -3.160547,-4.305736 -5.859272,-7.202988 -2.510728,-2.585276 z m 7.255634,5.009976 5.58,7.28213 3.43982,4.306882 4.278999,5.401094 0.836455,-1.486477 2.604726,-3.211523 -2.604726,-3.599201 2.977998,-2.193011 -1.209726,-1.801894 -2.604727,1.095359 -0.835093,-1.407336 7.716094,-0.783382 0.559907,-1.332782 0.279272,-1.486477 -3.439819,0.862524 -2.604727,0.311976 -2.510727,0.07914 -3.254546,-0.235129 -4.465634,-0.706535 z m -23.529726,1.801894 -2.602001,1.800747 -1.303726,0.939371 -2.975273,1.409629 -2.140181,0.939371 -2.138819,0.703094 -2.602001,0.706535 -2.5134525,0.548253 -3.0665478,0.547106 -0.3732715,3.602641 1.6742725,0.392264 1.7655468,0.311977 1.6742725,0.391118 2.046181,0.547106 1.582999,0.548253 1.486274,1.097653 1.488999,1.095358 1.115728,1.018512 1.115727,1.486476 1.024453,1.40963 0.835093,1.489917 0.83918,1.798453 1.301,-7.98637 0.929093,-7.202988 z m 26.969546,11.196747 2.604726,3.600347 1.954907,3.602641 1.114366,2.585276 0.559907,1.798453 0.370547,1.800748 0.370547,2.504988 0.279273,2.899547 -2.509366,-1.097653 0.094,-3.28837 -0.18936,-1.018512 -0.275186,-1.800748 -0.465908,-1.798453 -0.839179,-2.585276 -1.484913,-3.602641 z" />
  </g>
</svg>
