#define hflip_width 16
#define hflip_height 16
static char hflip_bits[] = {
   0x00, 0x00, 0x00, 0x00, 0x02, 0x40, 0x02, 0x40, 0x02, 0x40, 0x06, 0x60,
   0x0e, 0x70, 0xfe, 0x7f, 0xfe, 0x7f, 0x0e, 0x70, 0x06, 0x60, 0x02, 0x40,
   0x02, 0x40, 0x02, 0x40, 0x00, 0x00, 0x00, 0x00};
