#define larrow_width 16
#define larrow_height 16
static char larrow_bits[] = {
   0x00, 0x02, 0x00, 0x03, 0x80, 0x03, 0xc0, 0x1f, 0xe0, 0x1f, 0xf0, 0x1f,
   0xf8, 0x1f, 0xfc, 0x1f, 0xfc, 0x1f, 0xf8, 0x1f, 0xf0, 0x1f, 0xe0, 0x1f,
   0xc0, 0x1f, 0x80, 0x03, 0x00, 0x03, 0x00, 0x02};
