#define panel1_width 16
#define panel1_height 16
static char panel1_bits[] = {
   0x00, 0x00, 0xfc, 0x3f, 0xfc, 0x3f, 0x0c, 0x30, 0x0c, 0x30, 0xcc, 0x33,
   0x4c, 0x32, 0x4c, 0x32, 0x4c, 0x32, 0x4c, 0x32, 0x4c, 0x32, 0xcc, 0x33,
   0x0c, 0x30, 0x0c, 0x30, 0xfc, 0x3f, 0xfc, 0x3f};
