#define qmark_width 16
#define qmark_height 16
static char qmark_bits[] = {
   0x00, 0x00, 0x00, 0x00, 0xf0, 0x07, 0xf8, 0x0f, 0x18, 0x0c, 0x18, 0x0c,
   0x18, 0x0e, 0x00, 0x07, 0x80, 0x03, 0x80, 0x01, 0x80, 0x01, 0x00, 0x00,
   0x80, 0x01, 0x80, 0x01, 0x00, 0x00, 0x00, 0x00};
