#define vflip_width 16
#define vflip_height 16
static char vflip_bits[] = {
   0x00, 0x00, 0xfc, 0x3f, 0xe0, 0x07, 0xc0, 0x03, 0x80, 0x01, 0x80, 0x01,
   0x80, 0x01, 0x80, 0x01, 0x80, 0x01, 0x80, 0x01, 0x80, 0x01, 0x80, 0x01,
   0xc0, 0x03, 0xe0, 0x07, 0xfc, 0x3f, 0x00, 0x00};
