#define xflip2_width 16
#define xflip2_height 16
static char xflip2_bits[] = {
   0x00, 0x00, 0x00, 0x00, 0x00, 0x00, 0x00, 0x00, 0x30, 0x0c, 0x18, 0x18,
   0x0c, 0x30, 0xfe, 0x7f, 0x06, 0x60, 0xfe, 0x7f, 0x0c, 0x30, 0x18, 0x18,
   0x30, 0x0c, 0x00, 0x00, 0x00, 0x00, 0x00, 0x00};
