#define yflip_width 16
#define yflip_height 16
static char yflip_bits[] = {
   0x00, 0x00, 0x80, 0x01, 0xc0, 0x03, 0xe0, 0x07, 0xf0, 0x0f, 0x80, 0x01,
   0x80, 0x01, 0x80, 0x01, 0x80, 0x01, 0x80, 0x01, 0x80, 0x01, 0xf0, 0x0f,
   0xe0, 0x07, 0xc0, 0x03, 0x80, 0x01, 0x00, 0x00};
