#define larrow2_width 16
#define larrow2_height 16
static char larrow2_bits[] = {
   0x00, 0x00, 0x00, 0x03, 0x80, 0x03, 0xc0, 0x03, 0xe0, 0x1e, 0x70, 0x1e,
   0x38, 0x18, 0x1c, 0x18, 0x1c, 0x18, 0x38, 0x18, 0x70, 0x1e, 0xe0, 0x1e,
   0xc0, 0x03, 0x80, 0x03, 0x00, 0x03, 0x00, 0x00};
