#define rarrow2_width 16
#define rarrow2_height 16
static char rarrow2_bits[] = {
   0x00, 0x00, 0xc0, 0x00, 0xc0, 0x01, 0xc0, 0x03, 0x78, 0x07, 0x78, 0x0e,
   0x18, 0x1c, 0x18, 0x38, 0x18, 0x38, 0x18, 0x1c, 0x78, 0x0e, 0x78, 0x07,
   0xc0, 0x03, 0xc0, 0x01, 0xc0, 0x00, 0x00, 0x00};
